<?xml version="1.0" standalone="no"?>
<!DOCTYPE svg PUBLIC "-//W3C//DTD SVG 20010904//EN"
 "http://www.w3.org/TR/2001/REC-SVG-20010904/DTD/svg10.dtd">
<svg version="1.0" xmlns="http://www.w3.org/2000/svg"
 width="147.000000pt" height="115.000000pt" viewBox="0 0 147.000000 115.000000"
 preserveAspectRatio="xMidYMid meet">

<g transform="translate(0.000000,115.000000) scale(0.100000,-0.100000)"
fill="#000000" stroke="none">
<path d="M497 1136 c-89 -24 -147 -103 -147 -198 0 -71 32 -134 88 -173 42
-29 49 -30 164 -33 l119 -4 -3 34 -3 33 -105 5 c-59 3 -115 11 -128 18 -37 21
-62 72 -62 124 0 39 6 54 31 82 38 44 79 56 187 56 l83 0 -3 33 -3 32 -85 2
c-47 1 -107 -4 -133 -11z"/>
<path d="M760 1116 l0 -36 85 0 c55 0 99 -6 125 -16 97 -39 117 -155 39 -230
-29 -28 -35 -29 -140 -32 l-109 -4 0 -34 0 -34 100 0 c113 0 156 13 207 62 98
95 69 269 -53 329 -39 19 -69 24 -151 27 l-103 4 0 -36z"/>
<path d="M550 986 c-6 -8 -10 -25 -8 -38 3 -21 9 -23 71 -26 l67 -3 0 41 0 40
-59 0 c-39 0 -63 -5 -71 -14z"/>
<path d="M800 960 l0 -40 60 0 c48 0 61 4 70 19 13 25 13 27 -6 45 -10 11 -34
16 -70 16 l-54 0 0 -40z"/>
<path d="M508 543 l-3 -48 -69 -6 c-78 -7 -97 -21 -117 -89 -9 -30 -9 -47 2
-81 22 -66 54 -83 160 -87 l89 -4 0 181 0 181 -29 0 c-28 0 -30 -2 -33 -47z
m2 -178 l0 -75 -44 0 c-57 0 -76 19 -76 75 0 53 25 75 82 75 l38 0 0 -75z"/>
<path d="M1170 555 c0 -33 2 -35 35 -35 33 0 35 2 35 35 0 33 -2 35 -35 35
-33 0 -35 -2 -35 -35z"/>
<path d="M1330 540 c0 -47 -2 -50 -25 -50 -20 0 -25 -5 -25 -25 0 -20 5 -25
25 -25 25 0 25 -1 25 -84 0 -79 2 -86 26 -105 18 -14 41 -21 70 -21 39 0 44 3
44 23 0 17 -8 25 -32 32 -33 10 -33 10 -36 83 l-3 72 36 0 c31 0 35 3 35 25 0
22 -4 25 -35 25 l-35 0 0 50 0 50 -35 0 -35 0 0 -50z"/>
<path d="M920 482 c-87 -46 -92 -181 -8 -232 38 -23 110 -26 148 -7 36 18 70
74 70 116 0 109 -112 174 -210 123z m106 -50 c40 -26 41 -109 1 -137 -29 -20
-50 -19 -78 4 -30 24 -33 89 -5 120 19 21 61 28 82 13z"/>
<path d="M20 465 c0 -25 1 -25 78 -25 76 0 102 -9 102 -36 0 -8 -27 -13 -80
-16 -94 -4 -115 -18 -115 -78 0 -66 17 -74 151 -78 l116 -4 -4 112 c-4 146 -8
150 -149 150 -99 0 -99 0 -99 -25z m180 -155 c0 -29 -2 -30 -44 -30 -56 0 -76
8 -76 29 0 27 9 31 67 31 52 0 53 0 53 -30z"/>
<path d="M630 360 l0 -130 35 0 35 0 0 105 0 105 30 0 c27 0 30 -3 30 -30 0
-27 3 -30 30 -30 29 0 30 2 30 43 0 24 -5 48 -12 55 -7 7 -44 12 -95 12 l-83
0 0 -130z"/>
<path d="M1170 360 l0 -130 35 0 35 0 0 130 0 130 -35 0 -35 0 0 -130z"/>
<path d="M336 87 c-12 -9 -17 -23 -14 -42 3 -27 7 -30 38 -30 31 0 35 3 38 30
3 26 -17 55 -38 55 -3 0 -14 -6 -24 -13z m44 -38 c0 -24 -4 -30 -17 -27 -11 2
-19 14 -21 31 -3 22 1 27 17 27 17 0 21 -6 21 -31z"/>
<path d="M666 87 c-12 -9 -17 -23 -14 -42 2 -25 8 -30 35 -33 24 -2 34 2 43
18 11 21 5 60 -10 60 -5 0 -14 2 -22 5 -7 3 -22 -1 -32 -8z m49 -37 c0 -29
-32 -41 -41 -16 -9 24 4 48 23 44 12 -2 18 -12 18 -28z"/>
<path d="M160 50 c0 -22 5 -40 10 -40 6 0 10 7 10 15 0 8 5 15 10 15 6 0 13
-7 16 -15 11 -27 20 -16 21 25 2 39 1 40 -33 40 -33 0 -34 -1 -34 -40z m55 20
c3 -5 -3 -10 -14 -10 -12 0 -21 5 -21 10 0 6 6 10 14 10 8 0 18 -4 21 -10z"/>
<path d="M490 50 l0 -41 38 3 c35 3 37 5 37 38 0 33 -2 35 -37 38 l-38 3 0
-41z m55 20 c3 -5 -3 -10 -14 -10 -12 0 -21 5 -21 10 0 6 6 10 14 10 8 0 18
-4 21 -10z m0 -40 c-8 -13 -35 -13 -35 0 0 6 9 10 21 10 11 0 17 -4 14 -10z"/>
<path d="M823 83 c12 -3 17 -15 17 -39 0 -19 5 -34 10 -34 6 0 10 15 10 34 0
24 5 36 18 39 9 3 -3 5 -28 5 -25 0 -37 -2 -27 -5z"/>
<path d="M970 50 c0 -22 5 -40 10 -40 6 0 10 18 10 40 0 22 -4 40 -10 40 -5 0
-10 -18 -10 -40z"/>
<path d="M1084 76 c-3 -8 -4 -25 -2 -38 2 -19 9 -23 38 -24 26 -1 28 -1 8 3
-23 4 -28 9 -28 33 0 24 5 29 28 33 25 4 24 4 -6 6 -20 0 -35 -4 -38 -13z"/>
<path d="M1235 80 c-10 -17 15 -40 43 -40 31 0 18 -16 -18 -23 -18 -3 -14 -5
13 -6 34 -1 38 1 35 22 -2 16 -11 23 -30 25 -38 5 -35 20 5 25 l32 4 -37 1
c-20 1 -40 -3 -43 -8z"/>
</g>
</svg>
