<?xml version="1.0" encoding="UTF-8" standalone="no"?>
<!-- Created with Inkscape (http://www.inkscape.org/) -->

<svg
   version="1.1"
   id="svg2"
   width="663.18665"
   height="890.89331"
   viewBox="0 0 663.18665 890.89331"
   sodipodi:docname="puc.eps"
   xmlns:inkscape="http://www.inkscape.org/namespaces/inkscape"
   xmlns:sodipodi="http://sodipodi.sourceforge.net/DTD/sodipodi-0.dtd"
   xmlns="http://www.w3.org/2000/svg"
   xmlns:svg="http://www.w3.org/2000/svg">
  <defs
     id="defs6" />
  <sodipodi:namedview
     id="namedview4"
     pagecolor="#ffffff"
     bordercolor="#000000"
     borderopacity="0.25"
     inkscape:showpageshadow="2"
     inkscape:pageopacity="0.0"
     inkscape:pagecheckerboard="0"
     inkscape:deskcolor="#d1d1d1" />
  <g
     id="g8"
     inkscape:groupmode="layer"
     inkscape:label="ink_ext_XXXXXX"
     transform="matrix(1.3333333,0,0,-1.3333333,0,890.89333)">
    <g
       id="g10"
       transform="scale(0.1)">
      <path
         d="m 3478.9,3461.36 -962.21,-558.7 V 1808.55 l 962.21,558.69 v 1094.12"
         style="fill:#95182a;fill-opacity:1;fill-rule:nonzero;stroke:none"
         id="path12" />
      <path
         d="m 2454.58,1808.55 -962.22,558.69 v 1094.12 l 962.22,-558.7"
         style="fill:#95182a;fill-opacity:1;fill-rule:nonzero;stroke:none"
         id="path14" />
      <path
         d="m 3037.41,3890.21 -520.72,-302.32 v -592.12 l 520.72,302.36 v 592.08"
         style="fill:#95182a;fill-opacity:1;fill-rule:nonzero;stroke:none"
         id="path16" />
      <path
         d="m 2454.58,2995.77 -519.6,301.68 v 590.79 l 519.6,-301.67"
         style="fill:#95182a;fill-opacity:1;fill-rule:nonzero;stroke:none"
         id="path18" />
      <path
         d="m 1298.4,2561.2 c 1.13,-787.08 790.71,-1170.55 1179.41,-1171.73 v 0 c 393.24,1.18 1178.23,361.1 1179.32,1171.73 v 0 c 0,516.14 0,896.34 0,1147.59 v 0 c 0,188.32 0,303.94 0.09,350.14 v 0 H 1298.4 c 0,-117.4 0,-673 0,-1497.73 z m -46.56,0 c 0,931.21 0,1519.37 0,1520.92 v 0 23.37 h 2451.85 v -23.37 c 0,-1.55 0,-488.87 0,-1520.92 v 0 C 3701.78,1715.28 2891.55,1343.1 2477.81,1342.91 v 0 c -410.52,0.78 -1223.7,395.38 -1225.97,1218.29 v 0"
         style="fill:#95182a;fill-opacity:1;fill-rule:nonzero;stroke:none"
         id="path20" />
      <path
         d="m 4275.12,4903.66 19.91,11.92 -19.91,-11.92 z m -56.11,-61.56 110.22,-193.47 72.28,43.02 -114.48,191.91 -68.02,-41.46 z m -62.93,16.27 126.67,77.16 19.92,12.27 162.77,-272.07 -153.31,-91.57 -156.05,274.21 z m 320.09,-300.85 19.91,11.87 -19.91,-11.87 z m -57.2,-61.24 123.04,-207.61 69.84,41.65 -123.68,207.15 -69.2,-41.19 z m -63.65,16.13 128.95,77.16 19.72,11.87 171.61,-287.26 -149.96,-89.62 -170.32,287.85 z m -734.57,-4.81 20.1,11.73 -20.1,-11.73 z m -69.1,-69.25 116.12,-194.6 80.76,48.19 -115.86,195.47 -81.02,-49.06 z m -63.75,16.09 140.86,84.85 20,12.27 163.51,-275.76 -160.41,-95.93 -163.96,274.57 z m 390.11,-572.02 83.75,49.92 -123.22,207.43 -84.11,-50.29 123.58,-207.06 z m -175.5,203.24 -11.91,20.14 164.22,98.03 170.6,-287.8 -163.51,-97.48 -159.4,267.11 v 0"
         style="fill:#95182a;fill-opacity:1;fill-rule:nonzero;stroke:none"
         id="path22" />
      <path
         d="m 3526.18,4758.3 621.17,-1048.15 26.83,15.91 -65.56,110.94 20.1,11.69 11.91,-19.96 -11.91,19.96 -20.1,-11.69 -11.74,19.96 113.22,67.34 77.57,-131.04 44.64,26.28 -78.1,131.82 113.48,67.2 78.02,-131.67 37.29,22.09 -77.21,130.31 113.49,67.33 77.11,-130.3 56.65,33.59 -621.26,1047.97 -505.6,-299.58 z m -63.74,16.32 585.7,347.15 668.92,-1128.18 -136.95,-81.16 -77.2,130.27 -33.37,-19.74 77.38,-130.3 -117.67,-69.66 -77.93,131.81 -33.19,-19.73 78.11,-131.67 -124.76,-74.07 -77.66,131.08 -33.28,-19.82 77.57,-131.04 -107.12,-63.29 -668.55,1128.35 v 0"
         style="fill:#95182a;fill-opacity:1;fill-rule:nonzero;stroke:none"
         id="path24" />
      <path
         d="m 655.496,4648.55 110.07,193.55 -67.832,41.46 -114.582,-191.91 72.344,-43.1 z m -116.172,15.09 -20.047,12.01 162.403,272.11 146.765,-89.2 -155.945,-274.44 -133.176,79.52 z m -96.707,-374.92 123.074,207.51 -69.199,41.28 -123.711,-207.19 69.836,-41.6 z m -113.664,13.55 -19.922,12.05 171.418,286.98 149.082,-88.84 -170.636,-287.76 -129.942,77.57 z M 1332,4499.45 l 12,19.88 -12,-19.88 z m -95.94,-207.51 80.8,-48.14 116.21,194.74 -80.98,48.77 -116.03,-195.37 z m -63.65,-16.23 151.54,255.67 12.05,20.1 160.9,-97.12 -163.95,-274.58 -160.54,95.93 z m -65.93,-393.29 123.85,207.15 -84.29,50.24 -123.03,-207.55 83.47,-49.84 z m -127.261,21.78 -20.047,11.87 170.628,287.76 164.32,-98.03 -171.59,-287.39 -143.311,85.79 v 0"
         style="fill:#95182a;fill-opacity:1;fill-rule:nonzero;stroke:none"
         id="path26" />
      <path
         d="m 932.703,5069.88 11.867,19.88 -11.867,-19.88 z m -44.695,-1212.92 -77.793,-130.9 26.965,-16.05 621.26,1048.2 -505.635,299.77 -621.262,-1048.11 56.738,-33.65 77.207,130.31 113.489,-67.24 -77.383,-130.35 37.461,-21.97 77.976,131.5 113.489,-67.07 -78.165,-131.9 44.559,-26.37 77.566,131.13 113.528,-67.3 z m -141.399,-147.31 77.571,130.9 -33.465,19.87 -77.387,-130.9 -124.765,73.75 78.167,131.67 -33.468,19.87 -77.981,-131.67 -117.527,69.57 77.195,130.35 -33.23,19.68 -77.207,-130.35 -136.809,81.2 656.817,1108.22 12.003,19.86 585.757,-347.05 -668.686,-1128.44 -106.985,63.47 v 0"
         style="fill:#95182a;fill-opacity:1;fill-rule:nonzero;stroke:none"
         id="path28" />
      <path
         d="m 740.02,4443.62 102.976,-62.11 -143.633,-252.11 78.34,-46.24 143.227,249.85 101.39,-56.53 45.47,74.49 -109.255,59.42 65.925,124.12 -76.022,41.83 -65.333,-116.12 -100.078,60.15 -43.007,-76.75 z m 46.242,-392.52 11.863,20.06 -11.863,-20.06 z m -149.953,61.48 143.632,252.34 -102.531,62.06 88.613,157.95 99.895,-60.14 64.562,114.57 156.59,-86.12 -65.7,-123.93 111.76,-60.98 -94.17,-154.49 -100.483,55.97 -131.985,-230.16 -11.824,-20.65 -158.359,93.58 v 0"
         style="fill:#95182a;fill-opacity:1;fill-rule:nonzero;stroke:none"
         id="path30" />
      <path
         d="m 1378.23,4315.36 35.15,30.37 c 62.93,-72.43 118.9,-158.41 244.12,-244.43 v 0 l -26.38,-38.23 c -131.89,90.43 -193.23,183.68 -252.89,252.29 v 0"
         style="fill:#95182a;fill-opacity:1;fill-rule:nonzero;stroke:none"
         id="path32" />
      <path
         d="m 4206.92,4083.2 78.21,46.29 -143.32,251.85 102.75,62.15 -43.1,76.88 -100.12,-60.19 -65.2,116.21 -76.01,-41.83 66.01,-124.27 -109.3,-59.46 45.46,-74.43 101.22,56.61 143.4,-249.81 z m -8.37,-31.96 20.19,11.5 -20.19,-11.5 z m -152.5,218.65 -100.3,-56.01 -94.2,154.4 111.85,60.98 -65.93,123.94 156.68,86.29 64.65,-114.7 99.94,60.05 88.57,-157.86 -102.57,-61.97 143.39,-252.38 -137.67,-81.53 -20.55,-12.1 -143.86,250.89 v 0"
         style="fill:#95182a;fill-opacity:1;fill-rule:nonzero;stroke:none"
         id="path34" />
      <path
         d="m 3327.23,4101.4 c 125.12,86.02 181.23,172.04 244.06,244.47 v 0 h 0.18 l 35.1,-30.46 c -59.74,-68.8 -121.12,-161.91 -252.79,-252.57 v 0 l -26.55,38.56 v 0"
         style="fill:#95182a;fill-opacity:1;fill-rule:nonzero;stroke:none"
         id="path36" />
      <path
         d="m 2221.74,6274.36 h 178.42 l 0.17,-197.92 h 151.22 v 197.92 h 190.06 v 162.86 h -190.06 v 197.96 h -151.39 v -197.96 h -178.42 v -162.86 z m 131.85,-244.48 v 197.96 h -178.37 v 255.89 h 178.37 v 197.96 h 244.48 v -197.96 h 166.91 v -23.14 23.14 h 23.14 v -256.12 h -190.05 v -197.73 h -244.48 v 0"
         style="fill:#95182a;fill-opacity:1;fill-rule:nonzero;stroke:none"
         id="path38" />
      <path
         d="m 3398.15,4683.64 c -85.47,654.27 -491.04,1102.72 -830.95,1346.28 v 0 H 2382.42 C 2028.64,5850.83 1623.49,5192.6 1561.06,4683.64 v 0 h 1837.09 z m -1889.01,-46.74 2.68,25.7 c 56.92,533.18 470.72,1217.1 854.82,1411.38 v 0 l 4.82,2.5 h 210.74 l 6.14,-4.41 c 352.87,-250.8 778.71,-719.61 859.37,-1409.11 v 0 l 3.09,-26.06 H 1509.14 v 0"
         style="fill:#95182a;fill-opacity:1;fill-rule:nonzero;stroke:none"
         id="path40" />
      <path
         d="m 1881.24,5530.78 v 46.52 h 1190.1 v -46.52 h -1190.1 v 0"
         style="fill:#95182a;fill-opacity:1;fill-rule:nonzero;stroke:none"
         id="path42" />
      <path
         d="m 1647.31,5075.98 v 46.56 h 1668.73 v -46.56 H 1647.31 v 0"
         style="fill:#95182a;fill-opacity:1;fill-rule:nonzero;stroke:none"
         id="path44" />
      <path
         d="m 2274.39,5619.85 c -116.22,1.51 -225.92,62.03 -259.43,134.58 v 0 h 0.18 l 42.69,18.37 c 17.05,-45.19 117.77,-107.8 216.56,-106.25 v 0 c 70.47,0.36 138.4,27.19 185.33,105.48 v 0 l 19.14,32.38 20.51,-31.61 c 51.46,-78.7 123.3,-104.34 195.45,-104.89 v 0 c 100.53,-2.5 199.83,60.48 205.01,85.39 v 0 l 43.66,-16.09 c -26.57,-60.52 -131.09,-113.35 -248.67,-115.85 v 0 c -74.57,-0.32 -155.22,26.23 -214.28,98.34 v 0 c -54.6,-71.56 -131.58,-99.85 -204.83,-99.85 v 0 c -0.46,0 -0.87,0 -1.32,0 v 0"
         style="fill:#95182a;fill-opacity:1;fill-rule:nonzero;stroke:none"
         id="path46" />
      <path
         d="m 1728.15,5306.82 c 0.04,-0.05 0.09,-0.14 0.18,-0.19 v 0 0 l -0.18,0.19 z m 753.02,-4.59 c -85.48,-70.84 -229.92,-98.85 -372.46,-99.4 v 0 c -155.58,0.77 -307.54,33.28 -380.38,103.8 v 0 l 32.92,33.15 c 51.74,-54.02 199.19,-91.17 347.46,-90.43 v 0 c 144.58,-0.55 290.9,34.27 355.05,99.62 v 0 l 14.78,14.72 16.27,-13.18 c 95.94,-77.98 226.21,-106.49 353.92,-106.3 v 0 c 140.95,-0.19 278.08,35.05 354.74,69.7 v 0 l 19.09,-42.33 c -84.21,-38.1 -225.06,-73.93 -373.83,-73.93 v 0 c -127.85,0 -261.8,26.6 -367.56,104.58 v 0"
         style="fill:#95182a;fill-opacity:1;fill-rule:nonzero;stroke:none"
         id="path48" />
      <path
         d="m 2482.22,4888.79 c -98.03,-83.12 -265.34,-115.89 -432.84,-116.44 v 0 c -195.01,0.95 -389.07,44.24 -477.59,130.85 v 0 l 32.97,32.97 c 67.6,-69.74 257.65,-118.03 444.62,-117.26 v 0 c 169.91,-0.59 338.5,38.87 415.34,116.85 v 0 l 14.72,14.78 16.28,-13.23 c 113.04,-91.99 264.57,-125.08 414.57,-125.08 v 0 c 178.32,0 353.55,47.28 451.13,91.57 v 0 l 19.09,-42.38 c -104.57,-47.29 -283.71,-95.57 -470.22,-95.76 v 0 c -149.81,0.19 -305.26,31.33 -428.07,123.13 v 0"
         style="fill:#95182a;fill-opacity:1;fill-rule:nonzero;stroke:none"
         id="path50" />
      <path
         d="m 2485.54,4636.95 v 23.37 z m 165.41,-455.62 374.92,222.83 c -56.2,68.29 -76.84,153.72 -80.12,232.79 v 0 h -436.57 c 5.46,-219.97 86.93,-371.83 141.77,-455.62 z m -26.37,-44.56 c -58.24,85.2 -162.41,261.21 -162.23,523.55 v 0 23.15 h 529.51 v -23.15 c 0,-86.76 21.65,-180.18 86.75,-245.29 v 0 l 21.18,-21.1 -462.98,-274.98 -12.23,17.82 v 0"
         style="fill:#95182a;fill-opacity:1;fill-rule:nonzero;stroke:none"
         id="path52" />
      <path
         d="m 2320.26,4181.37 c 54.8,83.8 136.19,235.65 141.77,455.58 v 0 h -436.62 c -3.31,-79.07 -24.09,-164.5 -80.2,-232.84 v 0 l 375.05,-222.74 z m -448.8,212.56 21.05,21.05 c 65.25,65.06 86.71,158.63 86.71,245.29 v 0 23.2 h 506.45 v -23.2 23.2 h 23.2 v -23.2 c 0,-262.29 -103.94,-438.35 -162.28,-523.5 v 0 l -12.46,-18.01 -462.67,275.17 v 0"
         style="fill:#95182a;fill-opacity:1;fill-rule:nonzero;stroke:none"
         id="path54" />
      <path
         d="m 584.52,2409.3 c 57.421,-103.13 165.863,-173.37 291.808,-173.37 v 0 c 184.862,0.41 334.592,149.95 334.952,335 v 0 c 0,155.68 -106.52,285.26 -250.479,322.86 v 0 l -48.196,12.87 339.195,238.79 -0.19,175.87 -433.844,-305.45 27.644,71.61 c 14.231,36.88 22.461,76.43 22.649,117.9 v 0 c -0.371,185.05 -150.09,334.77 -335.137,335.14 v 0 C 347.859,3540.15 198.098,3390.43 197.91,3205.38 v 0 c 0,-61.47 17.695,-118.08 46.836,-168.01 v 0 l 12.5,-21.68 -22.461,-10.96 C 123.621,2949.85 46.4648,2836.95 46.4648,2704.92 v 0 C 46.8281,2519.87 196.594,2370.11 381.648,2369.74 v 0 c 62.375,0 120.168,18.23 170.637,48.19 v 0 l 20.547,12.29 11.688,-20.92 z m -28.778,-42.65 c -52.019,-27.1 -110.898,-43.56 -174.094,-43.38 v 0 C 170.859,2323.27 0,2493.96 0,2704.92 v 0 c 0,141.81 78.1055,264.57 192.82,330.14 v 0 c -25.918,51.01 -41.55,108.57 -41.55,170.32 v 0 c 0,210.73 170.859,381.6 381.652,381.6 v 0 c 210.73,0 381.598,-170.87 381.598,-381.6 v 0 c 0,-23.78 -2.411,-46.92 -6.778,-69.3 v 0 l 390.708,274.86 v -289.45 l -280.54,-197.47 c 140.26,-56.1 240.02,-192.32 240.02,-353.09 v 0 c 0,-210.78 -171,-381.65 -381.602,-381.65 v 0 c -135.449,0 -253.164,71.38 -320.586,177.37 z m 3148.038,791.67 357.83,-251.84 -48.56,-12.69 c -144.04,-37.6 -250.52,-167.18 -250.52,-322.86 v 0 c 0.36,-185.05 150.13,-334.59 335.18,-335 v 0 c 125.85,0 234.16,70.24 291.71,173.37 v 0 l 11.55,21.09 20.74,-12.46 c 50.47,-29.96 108.11,-48.19 170.68,-48.19 v 0 c 184.87,0.37 334.73,150.13 334.9,335.18 v 0 c 0,132.03 -76.93,244.93 -188.23,299.63 v 0 l 10.37,20.92 20.09,-11.69 -20.09,11.69 -10.37,-20.92 -22.46,11.14 12.65,21.51 c 29.18,50.1 46.82,106.71 46.82,168.18 v 0 c -0.36,185.05 -150.12,334.77 -335,335.14 v 0 c -185.04,-0.37 -335,-150.09 -335.18,-335.14 v 0 c 0,-41.47 8.46,-81.02 22.65,-118.08 v 0 l 26.91,-71.43 -451.67,318.32 v -175.87 z m 12.09,-587.39 c 0.18,160.77 99.76,296.99 240.16,353.09 v 0 l -298.72,210.11 v 289.67 l 408.84,-287.72 c -4.36,22.38 -6.81,45.52 -6.73,69.3 v 0 c 0,210.73 170.86,381.6 381.65,381.6 v 0 c 210.61,0 381.47,-170.87 381.65,-381.6 v 0 c 0,-61.8 -15.64,-119.4 -41.56,-170.41 v 0 c 114.67,-65.61 192.79,-188.28 192.79,-330.05 v 0 c 0,-210.96 -170.96,-381.65 -381.56,-381.65 v 0 c -63.2,-0.18 -122.31,16.28 -174.32,43.38 v 0 c -67.47,-105.99 -185.15,-177.37 -320.36,-177.37 v 0 c -210.79,0 -381.66,170.87 -381.84,381.65 v 0"
         style="fill:#95182a;fill-opacity:1;fill-rule:nonzero;stroke:none"
         id="path56" />
      <path
         d="m 380.645,3205.38 c 0,-84.16 68.156,-152.31 152.136,-152.5 v 0 c 84.199,0.19 152.356,68.34 152.356,152.5 v 0 c 0,84.02 -68.157,152.18 -152.356,152.35 v 0 c -83.98,-0.17 -152.136,-68.33 -152.136,-152.35 z m -46.79,0 c 0.239,109.8 89.165,198.92 198.926,198.92 v 0 c 109.985,0 198.918,-89.12 198.918,-198.92 v 0 c 0,-109.94 -88.933,-198.92 -198.918,-199.1 v 0 c -109.761,0.18 -198.687,89.16 -198.926,199.1 v 0"
         style="fill:#95182a;fill-opacity:1;fill-rule:nonzero;stroke:none"
         id="path58" />
      <path
         d="m 229.199,2704.83 c 0.176,-84.16 68.289,-152.31 152.266,-152.5 v 0 c 84.211,0.19 152.312,68.34 152.5,152.5 v 0 c -0.188,84.16 -68.289,152.13 -152.5,152.32 v 0 c -83.977,-0.19 -152.09,-68.16 -152.266,-152.32 z m -46.609,0 c 0.183,109.76 89.168,198.87 198.875,198.87 v 0 c 109.941,0 198.918,-89.11 199.101,-198.87 v 0 c -0.183,-109.75 -89.16,-198.87 -199.101,-199.05 v 0 c -109.707,0.18 -198.692,89.3 -198.875,199.05 v 0"
         style="fill:#95182a;fill-opacity:1;fill-rule:nonzero;stroke:none"
         id="path60" />
      <path
         d="m 723.879,2570.89 c 0.184,-84.02 68.152,-152.23 152.398,-152.41 v 0 c 84.028,0.18 152.233,68.39 152.233,152.41 v 0 c 0,84.25 -68.205,152.22 -152.233,152.4 v 0 c -84.246,-0.18 -152.214,-68.15 -152.398,-152.4 z m -46.606,0 c 0.176,109.79 88.977,199 199.004,199 v 0 c 109.809,0 198.833,-89.21 198.833,-199 v 0 c 0,-109.81 -89.024,-198.83 -198.833,-198.83 v 0 c -110.027,0 -198.828,89.02 -199.004,198.83 v 0"
         style="fill:#95182a;fill-opacity:1;fill-rule:nonzero;stroke:none"
         id="path62" />
      <path
         d="m 3945.39,2570.98 c 0,-84.21 68.29,-152.27 152.23,-152.5 v 0 c 84.21,0.23 152.31,68.47 152.31,152.5 v 0 c 0,84.02 -68.1,152.26 -152.31,152.5 v 0 c -83.94,-0.24 -152.23,-68.48 -152.23,-152.5 z m -46.65,0 c 0,109.89 89.02,198.86 198.88,198.86 v 0 c 109.93,0 198.96,-88.97 198.96,-198.86 v 0 c 0,-109.9 -89.03,-198.88 -198.96,-198.88 v 0 c -109.86,0 -198.88,88.98 -198.88,198.88 v 0"
         style="fill:#95182a;fill-opacity:1;fill-rule:nonzero;stroke:none"
         id="path64" />
      <path
         d="m 4439.98,2704.87 c 0.19,-84.24 68.12,-152.21 152.41,-152.4 v 0 c 84.03,0.19 152.22,68.34 152.22,152.4 v 0 c 0,84.03 -68.19,152.18 -152.22,152.37 v 0 c -84.29,-0.19 -152.22,-68.34 -152.41,-152.37 z m -46.65,0 c 0.19,109.76 89.12,198.83 199.06,198.83 v 0 c 109.75,0 198.78,-89.07 198.78,-198.83 v 0 c 0,-109.98 -89.03,-199.05 -198.78,-199.05 v 0 c -109.94,0 -198.87,89.26 -199.06,199.05 v 0"
         style="fill:#95182a;fill-opacity:1;fill-rule:nonzero;stroke:none"
         id="path66" />
      <path
         d="m 4288.76,3205.33 c 0,-84.07 68.11,-152.18 152.23,-152.36 v 0 c 84.2,0.18 152.3,68.29 152.3,152.36 v 0 c 0,84.03 -68.1,152.13 -152.3,152.37 v 0 c -84.12,-0.24 -152.23,-68.34 -152.23,-152.37 z m -46.65,0 c 0,109.94 89.11,198.97 198.88,198.97 v 0 c 109.93,0 198.96,-89.03 198.96,-198.97 v 0 c 0,-109.94 -89.03,-199.01 -198.96,-199.01 v 0 c -109.77,0 -198.88,89.26 -198.88,199.01 v 0"
         style="fill:#95182a;fill-opacity:1;fill-rule:nonzero;stroke:none"
         id="path68" />
      <path
         d="m 4191.64,4879.83 c 178.32,108.35 308.27,187.96 340.82,209.6 v 0 c 28.74,19.55 37.75,41.24 38.11,63.53 v 0 c -0.19,41.05 -38.74,82.29 -77.48,82.47 v 0 c -12.28,-0.18 -25.1,-3.63 -38.37,-12.82 v 0 l -13.28,18.96 13.09,-19.19 c -68.48,-46.51 -188.87,-122.66 -338.54,-214.97 v 0 l 75.65,-127.58 z m -139.13,143.04 19.65,12.05 c 158.12,97.62 286.07,178.19 355.91,225.79 v 0 0.04 c 20.73,14.42 43.38,21.15 65.02,21.15 v 0 c 69.11,-1.19 123.21,-61.97 123.94,-128.94 v 0 c 0.36,-37.06 -18.64,-76.21 -58.92,-102.49 v 0 c -36.01,-23.59 -173.6,-107.8 -362.47,-222.56 v 0 l -20.28,-12.09 -122.85,207.05 z M 2908.93,4105.49 c 206.14,124.17 456.94,275.34 699.92,421.88 v 0 l -74.93,126.5 c -340.46,-204.75 -692.88,-414.16 -919.48,-548.38 v 0 h 294.49 z m -379.65,-46.6 h -85.02 l 73.1,43.33 c 222.2,131.44 626.81,371.5 1012.74,603.66 v 0 l 19.91,12.09 122.58,-206.47 -19.73,-12.09 c -251.35,-151.59 -512.69,-309.13 -725.65,-437.3 v 0 l -5.74,-3.22 h -392.19 v 0"
         style="fill:#95182a;fill-opacity:1;fill-rule:nonzero;stroke:none"
         id="path70" />
      <path
         d="M 806.582,830.859 C 778.801,844 740.703,850.551 692.273,850.551 H 442.168 v -323.77 h 250.105 c 56.426,0 102.207,12.047 137.356,36.239 35.195,24.191 52.742,66.789 52.742,127.898 0,68.703 -25.23,115.352 -75.789,139.941 z m -490.996,128.5 h 418.152 c 82.668,0 149.453,-23.418 200.285,-70.3 50.832,-46.868 76.247,-112.707 76.247,-197.559 0,-72.93 -22.68,-136.441 -68.063,-190.5 -45.371,-54.059 -114.758,-81.121 -208.23,-81.121 H 442.168 V 24.8203 H 315.586 V 959.359"
         style="fill:#95182a;fill-opacity:1;fill-rule:nonzero;stroke:none"
         id="path72" />
      <path
         d="m 1309.27,959.359 v -577.66 c 0,-67.84 12.82,-124.269 38.45,-169.187 38.06,-67.883 102.17,-101.801 192.38,-101.801 108.16,0 181.69,36.687 220.6,110.078 20.92,39.832 31.42,93.481 31.42,160.91 v 577.66 h 127.86 V 434.531 c 0,-114.941 -15.56,-203.383 -46.61,-265.301 C 1816.36,56.4297 1708.69,0 1550.37,0 c -158.31,0 -265.79,56.4297 -322.35,169.23 -31.11,61.918 -46.61,150.36 -46.61,265.301 v 524.828 h 127.86"
         style="fill:#95182a;fill-opacity:1;fill-rule:nonzero;stroke:none"
         id="path74" />
      <path
         d="m 2774.35,891.289 c 64.56,-62.328 100.39,-133.168 107.57,-212.461 h -123.44 c -13.78,60.192 -41.15,107.891 -82.16,143.121 -41.06,35.199 -98.61,52.789 -172.78,52.789 -90.39,0 -163.35,-32.379 -218.96,-97.066 -55.62,-64.75 -83.39,-163.961 -83.39,-297.672 0,-109.531 25.1,-198.328 75.29,-266.48 50.2,-68.122 125.08,-102.168 224.65,-102.168 91.66,0 161.46,35.828 209.38,107.527 25.37,37.742 44.32,87.34 56.83,148.851 h 123.49 C 2879.87,269.301 2843.82,186.828 2782.62,120.262 2709.24,40.1016 2610.3,0 2485.81,0 2378.47,0 2288.35,32.9219 2215.37,98.6602 2119.39,185.68 2071.38,320 2071.38,501.641 c 0,137.949 36.05,251.019 108.17,339.32 77.97,95.891 185.46,143.848 322.54,143.848 116.94,0 207.7,-31.188 272.26,-93.52"
         style="fill:#95182a;fill-opacity:1;fill-rule:nonzero;stroke:none"
         id="path76" />
      <path
         d="m 3557.37,830.859 c -27.73,13.141 -65.91,19.692 -114.29,19.692 h -250.17 v -323.77 h 250.17 c 56.37,0 102.2,12.047 137.4,36.239 35.1,24.191 52.73,66.789 52.73,127.898 0,68.703 -25.27,115.352 -75.84,139.941 z m -491.03,128.5 h 418.2 c 82.66,0 149.41,-23.418 200.24,-70.3 50.83,-46.868 76.28,-112.707 76.28,-197.559 0,-72.93 -22.73,-136.441 -68.01,-190.5 -45.37,-54.059 -114.85,-81.121 -208.33,-81.121 H 3192.91 V 24.8203 H 3066.34 V 959.359"
         style="fill:#95182a;fill-opacity:1;fill-rule:nonzero;stroke:none"
         id="path78" />
      <path
         d="m 4349.69,531.242 c 57.74,0 103.39,11.867 137.03,35.598 33.65,23.73 50.38,66.558 50.38,128.492 0,66.598 -23.46,111.977 -70.47,136.168 -25.19,12.73 -58.75,19.051 -100.85,19.051 H 4065.06 V 531.242 Z m -411.2,428.117 h 424.84 c 69.92,0 127.58,-10.41 173.05,-31.199 86.2,-39.82 129.3,-113.43 129.3,-220.738 0,-55.973 -11.55,-101.762 -34.73,-137.402 -23.11,-35.641 -55.38,-64.239 -97.03,-85.891 36.55,-14.809 64.02,-34.32 82.38,-58.508 18.47,-24.191 28.74,-63.43 30.92,-117.723 l 4.46,-125.296 c 1.27,-35.653 4.18,-62.161 8.91,-79.524 7.63,-29.6991 21.19,-48.7889 40.65,-57.246 V 24.8203 h -155.23 c -4.18,8.0508 -7.64,18.461 -10.18,31.1992 -2.55,12.6797 -4.64,37.2813 -6.37,73.7895 l -7.55,155.851 c -2.91,61.07 -25.01,102 -66.2,122.77 -23.45,11.449 -60.38,17.191 -110.57,17.191 H 4065.06 V 24.8203 H 3938.49 V 959.359"
         style="fill:#95182a;fill-opacity:1;fill-rule:nonzero;stroke:none"
         id="path80" />
      <path
         d="m 789.172,4827.91 c -189.055,114.81 -326.645,199.01 -362.426,222.7 v 0 l 12.824,19.37 12.825,19.5 c 32.644,-21.59 162.41,-101.16 340.769,-209.56 v 0 l 75.43,127.45 c -149.578,92.35 -270.071,168.5 -338.321,214.93 v 0 c -13.769,9.36 -26.589,12.82 -38.828,12.99 v 0 c -38.867,-0.17 -77.336,-41.32 -77.519,-82.47 v 0 c 0.41,-22.01 9.367,-43.84 38.469,-63.34 v 0 l -12.825,-19.5 -12.824,-19.37 c -40.555,26.24 -59.695,65.06 -59.336,102.21 v 0 c 0.774,66.98 54.746,127.81 124.035,128.99 v 0 c 21.602,0 44.2,-6.73 65.071,-21.06 v 0 c 69.605,-47.46 197.644,-128.21 356.089,-225.83 v 0 l 19.512,-11.86 -123.035,-207.24 -19.91,12.09 z m 641.448,-161.9 12.05,19.91 -12.05,-19.91 z m 939.66,-560.48 c -226.65,134.27 -579.16,343.73 -919.62,548.43 v 0 l -74.93,-126.59 c 242.93,-146.68 493.82,-297.62 700.15,-421.84 v 0 h 294.4 z m -307.26,-46.69 -5.55,3.46 c -212.78,127.98 -474.18,285.48 -725.6,437.25 v 0 l -19.74,11.82 110.44,186.41 11.86,20.1 20.1,-12.09 c 385.97,-231.88 790.68,-472.23 1012.82,-603.53 v 0 l 73.48,-43.42 h -477.81 v 0"
         style="fill:#95182a;fill-opacity:1;fill-rule:nonzero;stroke:none"
         id="path82" />
    </g>
  </g>
</svg>
